{
	"asset":{
		"generator":"Khronos glTF Blender I/O v3.6.27",
		"version":"2.0"
	},
	"extensionsUsed":[
		"KHR_materials_specular"
	],
	"scene":0,
	"scenes":[
		{
			"name":"Scene",
			"nodes":[
				0,
				1,
				2,
				3,
				4,
				5,
				6,
				7,
				8,
				9,
				10,
				11,
				12
			]
		}
	],
	"nodes":[
		{
			"mesh":0,
			"name":"Plane",
			"scale":[
				7.069729328155518,
				7.069729328155518,
				7.069729328155518
			]
		},
		{
			"mesh":1,
			"name":"Cube.001",
			"scale":[
				1,
				1,
				2.2786946296691895
			],
			"translation":[
				-2.6103153228759766,
				0,
				3.1982247829437256
			]
		},
		{
			"mesh":2,
			"name":"Cube.002",
			"scale":[
				1,
				1,
				2.2786946296691895
			],
			"translation":[
				-0.8701050281524658,
				0,
				3.1982247829437256
			]
		},
		{
			"mesh":3,
			"name":"Cube.003",
			"scale":[
				1,
				1,
				2.2786946296691895
			],
			"translation":[
				0.8230725526809692,
				0,
				3.1982247829437256
			]
		},
		{
			"mesh":4,
			"name":"Cube.004",
			"scale":[
				1,
				1,
				2.2786946296691895
			],
			"translation":[
				3.067443609237671,
				0,
				3.1982247829437256
			]
		},
		{
			"mesh":5,
			"name":"Cube.005",
			"rotation":[
				0,
				0.7071068286895752,
				0,
				0.7071067094802856
			],
			"scale":[
				1,
				1,
				2.2786948680877686
			],
			"translation":[
				0.039193928241729736,
				0,
				0.4558717608451843
			]
		},
		{
			"mesh":6,
			"name":"Cube.006",
			"rotation":[
				0,
				0.7071068286895752,
				0,
				0.7071067094802856
			],
			"scale":[
				1,
				1,
				2.2786948680877686
			],
			"translation":[
				0.039193928241729736,
				0,
				-1.417712926864624
			]
		},
		{
			"mesh":7,
			"name":"Cube.007",
			"rotation":[
				0,
				0.7071068286895752,
				0,
				0.7071067094802856
			],
			"scale":[
				1,
				1,
				2.2786948680877686
			],
			"translation":[
				0.039193928241729736,
				0,
				-3.336414337158203
			]
		},
		{
			"mesh":8,
			"name":"Cube.008",
			"scale":[
				1,
				1,
				2.2786946296691895
			],
			"translation":[
				5.294738292694092,
				0,
				3.1982247829437256
			]
		},
		{
			"mesh":9,
			"name":"Cube.009",
			"scale":[
				1,
				1,
				2.2786946296691895
			],
			"translation":[
				-4.975976943969727,
				0,
				3.1982247829437256
			]
		},
		{
			"mesh":10,
			"name":"Cube.010",
			"scale":[
				1,
				1,
				2.2786946296691895
			],
			"translation":[
				3.067443609237671,
				0,
				-2.23176646232605
			]
		},
		{
			"mesh":11,
			"name":"Cube.011",
			"rotation":[
				0,
				0.7071068286895752,
				0,
				0.7071067094802856
			],
			"scale":[
				1,
				1,
				2.2786948680877686
			],
			"translation":[
				-1.4301106929779053,
				0,
				-1.417712926864624
			]
		},
		{
			"mesh":12,
			"name":"Cube.012",
			"rotation":[
				0,
				0.7071068286895752,
				0,
				0.7071067094802856
			],
			"scale":[
				1,
				1,
				2.2786948680877686
			],
			"translation":[
				-2.8994152545928955,
				0,
				-1.417712926864624
			]
		}
	],
	"materials":[
		{
			"doubleSided":true,
			"name":"Material.002",
			"pbrMetallicRoughness":{
				"baseColorFactor":[
					0.24271081387996674,
					0.24060408771038055,
					0.3049813210964203,
					1
				],
				"metallicFactor":0,
				"roughnessFactor":0.5
			}
		},
		{
			"doubleSided":true,
			"extensions":{
				"KHR_materials_specular":{
					"specularColorFactor":[
						0.8532110452651976,
						0.8532110452651976,
						0.8532110452651976
					]
				}
			},
			"name":"Material.001",
			"pbrMetallicRoughness":{
				"baseColorFactor":[
					0.800000011920929,
					0.800000011920929,
					0.800000011920929,
					1
				],
				"metallicFactor":0.24770642817020416,
				"roughnessFactor":0.8807339668273926
			}
		}
	],
	"meshes":[
		{
			"name":"Plane",
			"primitives":[
				{
					"attributes":{
						"POSITION":0,
						"NORMAL":1,
						"TEXCOORD_0":2
					},
					"indices":3,
					"material":0
				}
			]
		},
		{
			"name":"Cube.001",
			"primitives":[
				{
					"attributes":{
						"POSITION":4,
						"NORMAL":5,
						"TEXCOORD_0":6
					},
					"indices":7,
					"material":1
				}
			]
		},
		{
			"name":"Cube.002",
			"primitives":[
				{
					"attributes":{
						"POSITION":8,
						"NORMAL":9,
						"TEXCOORD_0":10
					},
					"indices":7,
					"material":1
				}
			]
		},
		{
			"name":"Cube.003",
			"primitives":[
				{
					"attributes":{
						"POSITION":11,
						"NORMAL":12,
						"TEXCOORD_0":13
					},
					"indices":7,
					"material":1
				}
			]
		},
		{
			"name":"Cube.004",
			"primitives":[
				{
					"attributes":{
						"POSITION":14,
						"NORMAL":15,
						"TEXCOORD_0":16
					},
					"indices":7,
					"material":1
				}
			]
		},
		{
			"name":"Cube.005",
			"primitives":[
				{
					"attributes":{
						"POSITION":17,
						"NORMAL":18,
						"TEXCOORD_0":19
					},
					"indices":7,
					"material":1
				}
			]
		},
		{
			"name":"Cube.006",
			"primitives":[
				{
					"attributes":{
						"POSITION":20,
						"NORMAL":21,
						"TEXCOORD_0":22
					},
					"indices":7,
					"material":1
				}
			]
		},
		{
			"name":"Cube.007",
			"primitives":[
				{
					"attributes":{
						"POSITION":23,
						"NORMAL":24,
						"TEXCOORD_0":25
					},
					"indices":7,
					"material":1
				}
			]
		},
		{
			"name":"Cube.008",
			"primitives":[
				{
					"attributes":{
						"POSITION":26,
						"NORMAL":27,
						"TEXCOORD_0":28
					},
					"indices":7,
					"material":1
				}
			]
		},
		{
			"name":"Cube.009",
			"primitives":[
				{
					"attributes":{
						"POSITION":29,
						"NORMAL":30,
						"TEXCOORD_0":31
					},
					"indices":7,
					"material":1
				}
			]
		},
		{
			"name":"Cube.010",
			"primitives":[
				{
					"attributes":{
						"POSITION":32,
						"NORMAL":33,
						"TEXCOORD_0":34
					},
					"indices":7,
					"material":1
				}
			]
		},
		{
			"name":"Cube.011",
			"primitives":[
				{
					"attributes":{
						"POSITION":35,
						"NORMAL":36,
						"TEXCOORD_0":37
					},
					"indices":7,
					"material":1
				}
			]
		},
		{
			"name":"Cube.012",
			"primitives":[
				{
					"attributes":{
						"POSITION":38,
						"NORMAL":39,
						"TEXCOORD_0":40
					},
					"indices":7,
					"material":1
				}
			]
		}
	],
	"accessors":[
		{
			"bufferView":0,
			"componentType":5126,
			"count":4,
			"max":[
				0.9844537377357483,
				0,
				0.8180927634239197
			],
			"min":[
				-0.9134190678596497,
				0,
				-0.787692666053772
			],
			"type":"VEC3"
		},
		{
			"bufferView":1,
			"componentType":5126,
			"count":4,
			"type":"VEC3"
		},
		{
			"bufferView":2,
			"componentType":5126,
			"count":4,
			"type":"VEC2"
		},
		{
			"bufferView":3,
			"componentType":5123,
			"count":6,
			"type":"SCALAR"
		},
		{
			"bufferView":4,
			"componentType":5126,
			"count":24,
			"max":[
				0.5865786075592041,
				0.34383806586265564,
				0.5865786075592041
			],
			"min":[
				-0.5865786075592041,
				0.00784236192703247,
				-0.5865786075592041
			],
			"type":"VEC3"
		},
		{
			"bufferView":5,
			"componentType":5126,
			"count":24,
			"type":"VEC3"
		},
		{
			"bufferView":6,
			"componentType":5126,
			"count":24,
			"type":"VEC2"
		},
		{
			"bufferView":7,
			"componentType":5123,
			"count":36,
			"type":"SCALAR"
		},
		{
			"bufferView":8,
			"componentType":5126,
			"count":24,
			"max":[
				0.5865786075592041,
				0.34383806586265564,
				0.5865786075592041
			],
			"min":[
				-0.5865786075592041,
				0.00784236192703247,
				-0.5865786075592041
			],
			"type":"VEC3"
		},
		{
			"bufferView":9,
			"componentType":5126,
			"count":24,
			"type":"VEC3"
		},
		{
			"bufferView":10,
			"componentType":5126,
			"count":24,
			"type":"VEC2"
		},
		{
			"bufferView":11,
			"componentType":5126,
			"count":24,
			"max":[
				0.5865786075592041,
				0.34383806586265564,
				0.5865786075592041
			],
			"min":[
				-0.5865786075592041,
				0.00784236192703247,
				-0.5865786075592041
			],
			"type":"VEC3"
		},
		{
			"bufferView":12,
			"componentType":5126,
			"count":24,
			"type":"VEC3"
		},
		{
			"bufferView":13,
			"componentType":5126,
			"count":24,
			"type":"VEC2"
		},
		{
			"bufferView":14,
			"componentType":5126,
			"count":24,
			"max":[
				0.5865786075592041,
				0.34383806586265564,
				0.5865786075592041
			],
			"min":[
				-0.5865786075592041,
				0.00784236192703247,
				-1.465730905532837
			],
			"type":"VEC3"
		},
		{
			"bufferView":15,
			"componentType":5126,
			"count":24,
			"type":"VEC3"
		},
		{
			"bufferView":16,
			"componentType":5126,
			"count":24,
			"type":"VEC2"
		},
		{
			"bufferView":17,
			"componentType":5126,
			"count":24,
			"max":[
				0.5865786671638489,
				0.34383806586265564,
				0.5865786075592041
			],
			"min":[
				-0.5865786075592041,
				0.00784236192703247,
				-1.4642741680145264
			],
			"type":"VEC3"
		},
		{
			"bufferView":18,
			"componentType":5126,
			"count":24,
			"type":"VEC3"
		},
		{
			"bufferView":19,
			"componentType":5126,
			"count":24,
			"type":"VEC2"
		},
		{
			"bufferView":20,
			"componentType":5126,
			"count":24,
			"max":[
				0.5865786075592041,
				0.34383806586265564,
				0.5865786075592041
			],
			"min":[
				-0.5865786671638489,
				0.00784236192703247,
				-0.035089969635009766
			],
			"type":"VEC3"
		},
		{
			"bufferView":21,
			"componentType":5126,
			"count":24,
			"type":"VEC3"
		},
		{
			"bufferView":22,
			"componentType":5126,
			"count":24,
			"type":"VEC2"
		},
		{
			"bufferView":23,
			"componentType":5126,
			"count":24,
			"max":[
				0.5865786671638489,
				0.34383806586265564,
				0.5865786075592041
			],
			"min":[
				-0.5865786075592041,
				0.00784236192703247,
				-1.4642741680145264
			],
			"type":"VEC3"
		},
		{
			"bufferView":24,
			"componentType":5126,
			"count":24,
			"type":"VEC3"
		},
		{
			"bufferView":25,
			"componentType":5126,
			"count":24,
			"type":"VEC2"
		},
		{
			"bufferView":26,
			"componentType":5126,
			"count":24,
			"max":[
				0.5865786075592041,
				0.34383806586265564,
				0.5865786075592041
			],
			"min":[
				-0.5865786075592041,
				0.00784236192703247,
				-3.3085784912109375
			],
			"type":"VEC3"
		},
		{
			"bufferView":27,
			"componentType":5126,
			"count":24,
			"type":"VEC3"
		},
		{
			"bufferView":28,
			"componentType":5126,
			"count":24,
			"type":"VEC2"
		},
		{
			"bufferView":29,
			"componentType":5126,
			"count":24,
			"max":[
				0.5865786075592041,
				0.34383806586265564,
				0.5865786075592041
			],
			"min":[
				-0.5865786075592041,
				0.00784236192703247,
				-3.1627469062805176
			],
			"type":"VEC3"
		},
		{
			"bufferView":30,
			"componentType":5126,
			"count":24,
			"type":"VEC3"
		},
		{
			"bufferView":31,
			"componentType":5126,
			"count":24,
			"type":"VEC2"
		},
		{
			"bufferView":32,
			"componentType":5126,
			"count":24,
			"max":[
				0.5865786075592041,
				0.34383806586265564,
				0.5865786075592041
			],
			"min":[
				-0.5865786075592041,
				0.00784236192703247,
				-0.933547854423523
			],
			"type":"VEC3"
		},
		{
			"bufferView":33,
			"componentType":5126,
			"count":24,
			"type":"VEC3"
		},
		{
			"bufferView":34,
			"componentType":5126,
			"count":24,
			"type":"VEC2"
		},
		{
			"bufferView":35,
			"componentType":5126,
			"count":24,
			"max":[
				0.5865786075592041,
				0.34383806586265564,
				0.5865786075592041
			],
			"min":[
				-0.5865786671638489,
				0.00784236192703247,
				-0.035089969635009766
			],
			"type":"VEC3"
		},
		{
			"bufferView":36,
			"componentType":5126,
			"count":24,
			"type":"VEC3"
		},
		{
			"bufferView":37,
			"componentType":5126,
			"count":24,
			"type":"VEC2"
		},
		{
			"bufferView":38,
			"componentType":5126,
			"count":24,
			"max":[
				0.5865786075592041,
				0.34383806586265564,
				0.5865786075592041
			],
			"min":[
				-0.5865786671638489,
				0.00784236192703247,
				-0.1712820827960968
			],
			"type":"VEC3"
		},
		{
			"bufferView":39,
			"componentType":5126,
			"count":24,
			"type":"VEC3"
		},
		{
			"bufferView":40,
			"componentType":5126,
			"count":24,
			"type":"VEC2"
		}
	],
	"bufferViews":[
		{
			"buffer":0,
			"byteLength":48,
			"byteOffset":0,
			"target":34962
		},
		{
			"buffer":0,
			"byteLength":48,
			"byteOffset":48,
			"target":34962
		},
		{
			"buffer":0,
			"byteLength":32,
			"byteOffset":96,
			"target":34962
		},
		{
			"buffer":0,
			"byteLength":12,
			"byteOffset":128,
			"target":34963
		},
		{
			"buffer":0,
			"byteLength":288,
			"byteOffset":140,
			"target":34962
		},
		{
			"buffer":0,
			"byteLength":288,
			"byteOffset":428,
			"target":34962
		},
		{
			"buffer":0,
			"byteLength":192,
			"byteOffset":716,
			"target":34962
		},
		{
			"buffer":0,
			"byteLength":72,
			"byteOffset":908,
			"target":34963
		},
		{
			"buffer":0,
			"byteLength":288,
			"byteOffset":980,
			"target":34962
		},
		{
			"buffer":0,
			"byteLength":288,
			"byteOffset":1268,
			"target":34962
		},
		{
			"buffer":0,
			"byteLength":192,
			"byteOffset":1556,
			"target":34962
		},
		{
			"buffer":0,
			"byteLength":288,
			"byteOffset":1748,
			"target":34962
		},
		{
			"buffer":0,
			"byteLength":288,
			"byteOffset":2036,
			"target":34962
		},
		{
			"buffer":0,
			"byteLength":192,
			"byteOffset":2324,
			"target":34962
		},
		{
			"buffer":0,
			"byteLength":288,
			"byteOffset":2516,
			"target":34962
		},
		{
			"buffer":0,
			"byteLength":288,
			"byteOffset":2804,
			"target":34962
		},
		{
			"buffer":0,
			"byteLength":192,
			"byteOffset":3092,
			"target":34962
		},
		{
			"buffer":0,
			"byteLength":288,
			"byteOffset":3284,
			"target":34962
		},
		{
			"buffer":0,
			"byteLength":288,
			"byteOffset":3572,
			"target":34962
		},
		{
			"buffer":0,
			"byteLength":192,
			"byteOffset":3860,
			"target":34962
		},
		{
			"buffer":0,
			"byteLength":288,
			"byteOffset":4052,
			"target":34962
		},
		{
			"buffer":0,
			"byteLength":288,
			"byteOffset":4340,
			"target":34962
		},
		{
			"buffer":0,
			"byteLength":192,
			"byteOffset":4628,
			"target":34962
		},
		{
			"buffer":0,
			"byteLength":288,
			"byteOffset":4820,
			"target":34962
		},
		{
			"buffer":0,
			"byteLength":288,
			"byteOffset":5108,
			"target":34962
		},
		{
			"buffer":0,
			"byteLength":192,
			"byteOffset":5396,
			"target":34962
		},
		{
			"buffer":0,
			"byteLength":288,
			"byteOffset":5588,
			"target":34962
		},
		{
			"buffer":0,
			"byteLength":288,
			"byteOffset":5876,
			"target":34962
		},
		{
			"buffer":0,
			"byteLength":192,
			"byteOffset":6164,
			"target":34962
		},
		{
			"buffer":0,
			"byteLength":288,
			"byteOffset":6356,
			"target":34962
		},
		{
			"buffer":0,
			"byteLength":288,
			"byteOffset":6644,
			"target":34962
		},
		{
			"buffer":0,
			"byteLength":192,
			"byteOffset":6932,
			"target":34962
		},
		{
			"buffer":0,
			"byteLength":288,
			"byteOffset":7124,
			"target":34962
		},
		{
			"buffer":0,
			"byteLength":288,
			"byteOffset":7412,
			"target":34962
		},
		{
			"buffer":0,
			"byteLength":192,
			"byteOffset":7700,
			"target":34962
		},
		{
			"buffer":0,
			"byteLength":288,
			"byteOffset":7892,
			"target":34962
		},
		{
			"buffer":0,
			"byteLength":288,
			"byteOffset":8180,
			"target":34962
		},
		{
			"buffer":0,
			"byteLength":192,
			"byteOffset":8468,
			"target":34962
		},
		{
			"buffer":0,
			"byteLength":288,
			"byteOffset":8660,
			"target":34962
		},
		{
			"buffer":0,
			"byteLength":288,
			"byteOffset":8948,
			"target":34962
		},
		{
			"buffer":0,
			"byteLength":192,
			"byteOffset":9236,
			"target":34962
		}
	],
	"buffers":[
		{
			"byteLength":9428,
			"uri":"data:application/octet-stream;base64,"
		}
	]
}
